<svg width="33" height="33" viewBox="0 0 33 33" fill="none" xmlns="http://www.w3.org/2000/svg">
<path d="M29.194 25.9972L27.8985 18.005C27.8792 17.8793 27.7696 17.7891 27.6439 17.7891H19.2135C19.0878 17.7891 18.9782 17.8793 18.9589 18.005L17.6634 25.9972C17.6602 26.0101 17.6602 26.0262 17.6602 26.0391C17.6602 26.1809 17.7762 26.2969 17.918 26.2969H28.9395C28.9523 26.2969 28.9685 26.2969 28.9813 26.2937C29.1199 26.2711 29.2166 26.139 29.194 25.9972ZM14.0411 18.005C14.0218 17.8793 13.9122 17.7891 13.7865 17.7891H5.35605C5.23037 17.7891 5.1208 17.8793 5.10146 18.005L3.80596 25.9972C3.80273 26.0101 3.80273 26.0262 3.80273 26.0391C3.80273 26.1809 3.91875 26.2969 4.06055 26.2969H15.082C15.0949 26.2969 15.111 26.2969 15.1239 26.2937C15.2657 26.2711 15.3592 26.139 15.3366 25.9972L14.0411 18.005ZM11.0215 15.2109H22.043C22.0559 15.2109 22.072 15.2109 22.0849 15.2077C22.2267 15.1852 22.3201 15.053 22.2976 14.9112L21.0021 6.91904C20.9827 6.79336 20.8731 6.70312 20.7475 6.70312H12.317C12.1913 6.70312 12.0817 6.79336 12.0624 6.91904L10.7669 14.9112C10.7637 14.9241 10.7637 14.9402 10.7637 14.9531C10.7637 15.0949 10.8797 15.2109 11.0215 15.2109Z" fill="black"/>
</svg>
