<svg width="34" height="34" viewBox="0 0 34 34" fill="none" xmlns="http://www.w3.org/2000/svg">
<path d="M30.8133 19.125C30.8109 21.3786 29.9146 23.5391 28.321 25.1327C26.7275 26.7262 24.5669 27.6225 22.3133 27.625H10.6258C10.344 27.625 10.0738 27.513 9.87454 27.3138C9.67528 27.1145 9.56334 26.8443 9.56334 26.5625C9.56334 26.2807 9.67528 26.0104 9.87454 25.8112C10.0738 25.6119 10.344 25.5 10.6258 25.5H22.3133C24.0041 25.5 25.6256 24.8283 26.8211 23.6328C28.0167 22.4372 28.6883 20.8157 28.6883 19.125C28.6883 17.4342 28.0167 15.8127 26.8211 14.6172C25.6256 13.4216 24.0041 12.75 22.3133 12.75H6.81545L11.3776 17.3108C11.5769 17.5101 11.6889 17.7805 11.6889 18.0625C11.6889 18.3444 11.5769 18.6148 11.3776 18.8142C11.1782 19.0136 10.9078 19.1256 10.6258 19.1256C10.3439 19.1256 10.0735 19.0136 9.87412 18.8142L3.49912 12.4392C3.40033 12.3405 3.32196 12.2233 3.26849 12.0944C3.21502 11.9654 3.1875 11.8271 3.1875 11.6875C3.1875 11.5479 3.21502 11.4096 3.26849 11.2806C3.32196 11.1516 3.40033 11.0344 3.49912 10.9358L9.87412 4.56076C10.0735 4.36139 10.3439 4.24939 10.6258 4.24939C10.9078 4.24939 11.1782 4.36139 11.3776 4.56076C11.5769 4.76013 11.6889 5.03053 11.6889 5.31248C11.6889 5.59443 11.5769 5.86483 11.3776 6.0642L6.81545 10.625H22.3133C24.5669 10.6274 26.7275 11.5238 28.321 13.1173C29.9146 14.7108 30.8109 16.8714 30.8133 19.125Z" fill="black"/>
</svg>
